<?xml version="1.0" standalone="no"?>
<!DOCTYPE svg PUBLIC "-//W3C//DTD SVG 20010904//EN"
 "http://www.w3.org/TR/2001/REC-SVG-20010904/DTD/svg10.dtd">
<svg version="1.0" xmlns="http://www.w3.org/2000/svg"
 width="1280.000000pt" height="1123.000000pt" viewBox="0 0 1280.000000 1123.000000"
 preserveAspectRatio="xMidYMid meet">
<metadata>
Created by potrace 1.15, written by Peter Selinger 2001-2017
</metadata>
<g transform="translate(0.000000,1123.000000) scale(0.100000,-0.100000)"
fill="#000000" stroke="none">
<path d="M10280 11219 c-236 -27 -485 -103 -720 -220 -652 -324 -1172 -916
-1659 -1889 -236 -472 -422 -960 -534 -1398 l-32 -127 -146 -75 c-256 -133
-488 -288 -779 -520 -475 -380 -855 -772 -1217 -1255 -74 -99 -139 -184 -143
-189 -5 -5 -62 0 -132 10 -152 23 -589 26 -763 5 -697 -83 -1336 -289 -2102
-677 -553 -280 -909 -529 -1258 -879 -438 -438 -699 -923 -776 -1440 -17 -113
-17 -451 0 -560 78 -505 287 -947 622 -1311 394 -430 975 -667 1694 -691 832
-27 1907 292 2898 861 638 366 1084 770 1395 1266 50 80 66 97 98 109 491 177
843 362 1227 643 380 279 669 550 1178 1106 126 138 148 169 155 214 6 32 10
37 28 33 95 -19 406 -22 543 -5 384 47 748 203 1108 475 483 366 932 972 1250
1690 478 1080 659 1990 555 2797 -26 207 -52 322 -110 500 -79 239 -200 471
-348 668 -80 105 -290 314 -395 392 -223 165 -566 325 -863 402 -260 67 -546
91 -774 65z m450 -1439 c358 -86 592 -377 650 -810 15 -108 15 -387 0 -505
-59 -484 -233 -1050 -481 -1563 -185 -384 -331 -617 -529 -840 -62 -71 -258
-247 -266 -239 -1 1 13 62 32 136 45 176 63 288 71 446 16 343 -73 658 -255
909 -233 318 -556 520 -934 581 -21 3 -38 9 -38 14 0 4 36 99 79 212 261 677
491 1074 792 1364 245 236 411 312 679 314 83 1 139 -5 200 -19z m-1904 -3303
c96 -100 104 -141 85 -416 l-6 -95 -26 40 c-42 63 -75 133 -97 206 -12 37 -28
81 -37 98 -13 24 -33 168 -35 248 0 22 55 -17 116 -81z m-1357 -555 c71 -421
218 -746 451 -995 l83 -88 -25 -27 c-13 -15 -85 -94 -159 -177 -314 -352 -565
-594 -822 -794 -38 -29 -70 -51 -72 -49 -1 2 -12 38 -24 82 -88 323 -259 624
-519 914 l-84 93 78 96 c193 236 461 522 691 736 165 152 376 338 380 334 1
-1 11 -58 22 -125z m-3042 -1799 c-3 -21 -15 -100 -27 -177 -41 -271 -43 -658
-5 -881 35 -203 106 -390 199 -519 51 -70 161 -180 225 -221 l43 -29 -28 -23
c-111 -90 -468 -291 -770 -432 -437 -204 -812 -327 -1219 -398 -143 -24 -184
-28 -385 -28 -182 0 -241 4 -308 18 -278 62 -466 179 -589 369 -96 149 -134
275 -134 450 0 288 104 494 400 788 284 282 628 501 1136 723 608 265 1016
378 1434 396 33 1 34 1 28 -36z m1130 -650 c-3 -10 -5 -4 -5 12 0 17 2 24 5
18 2 -7 2 -21 0 -30z"/>
</g>
</svg>
